<svg width="26" height="26" viewBox="0 0 26 26" fill="none" xmlns="http://www.w3.org/2000/svg">
<path d="M17.9999 13.031C17.9828 15.794 15.7296 18.017 12.969 17.9999C10.206 17.9827 7.98298 15.7295 8.0001 12.969C8.01724 10.2059 10.2704 7.98295 13.031 8.00007C15.794 8.0172 18.017 10.2704 17.9999 13.031ZM9.7547 12.9798C9.74357 14.7734 11.1871 16.2342 12.9799 16.2453C14.7726 16.2564 16.2342 14.8129 16.2453 13.0201C16.2564 11.2273 14.8129 9.76578 13.0201 9.75466C11.2274 9.74273 9.76582 11.1863 9.7547 12.9798Z" fill="#FFFDFD"/>
<path d="M22.9626 8.93812C23.037 10.7786 23.0046 15.336 22.9115 17.1771C22.8256 18.795 22.4259 20.22 21.268 21.3637C19.3328 23.2751 16.7428 23.0132 12.9421 22.9896C9.05222 22.9655 6.51931 23.1664 4.63696 21.2606C2.719 19.3178 2.9878 16.6902 3.01109 12.9345C3.03498 9.08121 3.04073 7.75122 3.57666 6.39202C4.30729 4.54402 5.97174 3.15598 8.94664 3.03776C10.7879 2.96251 15.3444 2.99576 17.1855 3.08885C20.6952 3.27562 22.8126 5.17295 22.9626 8.93812ZM6.00459 5.9204C4.73599 7.17339 4.83763 8.92322 4.81254 12.9698C4.7867 17.1364 4.71467 18.8068 5.92957 20.0335C7.31831 21.4463 9.56397 21.2061 12.9663 21.2272C17.5703 21.2558 20.8831 21.7488 21.1484 17.1295C21.1925 16.0681 21.207 15.7557 21.2235 13.0833L21.1988 13.0456C21.2263 8.60485 21.7129 5.12363 17.0944 4.88582C16.0405 4.83178 15.7239 4.81899 13.0557 4.80244C8.93752 4.77773 7.25723 4.68898 6.00459 5.9204Z" fill="#FFFDFD"/>
<path d="M17.034 7.52488C17.0392 6.69647 17.7149 6.02908 18.5433 6.03421C19.3717 6.03935 20.0391 6.71507 20.034 7.54348C20.0289 8.3719 19.3531 9.03929 18.5247 9.03415C17.6963 9.02902 17.0289 8.35329 17.034 7.52488Z" fill="#FFFDFD"/>
</svg>
