<svg width="177" height="108" viewBox="0 0 177 108" fill="none" xmlns="http://www.w3.org/2000/svg">
<path d="M57.104 70.144L44.432 34.72L32.192 70.144H57.104ZM31.184 73.168L26.72 88.144C25.76 91.6 25.28 94.336 25.28 96.352C25.28 98.56 25.808 100.096 26.864 100.96C28.016 101.824 29.456 102.448 31.184 102.832C32.912 103.12 34.592 103.312 36.224 103.408C37.856 103.504 39.44 103.6 40.976 103.696V106H0.368V103.696L8.864 103.12C12.032 102.736 14.432 101.968 16.064 100.816C17.696 99.568 18.896 98.032 19.664 96.208C20.528 94.384 21.44 92.224 22.4 89.728C23.456 87.232 24.32 84.976 24.992 82.96L52.496 0.591992H68.336L98.72 82.96L103.184 94.192C104.528 97.168 105.872 99.328 107.216 100.672C108.656 101.92 110.624 102.736 113.12 103.12L119.024 103.696V106H50.624V103.696C51.776 103.696 52.784 103.696 53.648 103.696C54.608 103.6 56.288 103.36 58.688 102.976C61.088 102.592 62.816 102.112 63.872 101.536C64.928 100.864 65.456 99.52 65.456 97.504C65.456 95.392 64.784 92.368 63.44 88.432L58.256 73.168H31.184Z" fill="#C7B2AA" fill-opacity="0.92"/>
<path d="M176.055 3.32799C174.807 3.424 173.367 3.52 171.735 3.616C170.199 3.712 168.087 3.95199 165.399 4.336C162.807 4.72 160.791 5.872 159.351 7.79199C158.007 9.71199 157.191 12.208 156.903 15.28L156.615 22.192V64.96L156.327 72.16C154.887 85.408 151.287 94.672 145.527 99.952C139.767 105.136 130.839 107.728 118.743 107.728C102.807 107.728 90.5187 104.704 81.8787 98.656C73.2387 92.608 68.9187 85.072 68.9187 76.048V19.312L68.6307 12.688C68.3427 9.616 67.6707 7.504 66.6147 6.352C65.6547 5.10399 63.6867 4.28799 60.7107 3.90399L54.6627 3.32799V1.024H122.055V3.32799C120.807 3.424 119.367 3.52 117.735 3.616C116.199 3.616 114.183 3.808 111.687 4.192C109.191 4.47999 107.463 5.15199 106.503 6.208C105.543 7.264 104.919 9.424 104.631 12.688L104.343 19.312V77.056C104.343 78.208 104.391 79.6 104.487 81.232C104.583 82.864 104.871 85.408 105.351 88.864C105.927 92.224 107.847 95.584 111.111 98.944C114.471 102.208 119.031 103.84 124.791 103.84C132.855 103.84 138.903 101.824 142.935 97.792C147.063 93.664 149.799 88.96 151.143 83.68C152.583 78.4 153.351 73.888 153.447 70.144L153.591 63.376V21.616L153.303 14.704C153.015 11.536 152.199 9.13599 150.855 7.504C149.607 5.872 147.687 4.86399 145.095 4.47999C142.503 3.99999 140.343 3.712 138.615 3.616C136.887 3.52 135.255 3.424 133.719 3.32799V1.024H176.055V3.32799Z" fill="#C7B2AA" fill-opacity="0.5"/>
</svg>
