<svg width="24" height="24" viewBox="0 0 24 24" fill="none" xmlns="http://www.w3.org/2000/svg">
<path d="M2.10938 2H21.8906C23.0561 2 24 3.12567 24 4.5V19.5C24 20.8825 23.0491 22 21.8906 22H2.10938C0.953672 22 0 20.8872 0 19.5V4.5C0 3.12811 0.940172 2 2.10938 2ZM2.40478 3.66667C2.83575 4.17472 10.2524 12.9185 10.5084 13.2204C10.9069 13.6926 11.4366 13.9526 12 13.9526C12.5634 13.9526 13.0931 13.6926 13.4929 13.2188C13.6651 13.0158 20.9999 4.36856 21.5952 3.66667H2.40478ZM22.5938 19.1608V4.84028L16.517 12.0044L22.5938 19.1608ZM21.5943 20.3333L15.5199 13.1798L14.4859 14.3989C13.8219 15.1859 12.939 15.6193 12 15.6193C11.061 15.6193 10.1781 15.1859 9.51539 14.4004L8.48006 13.1798L2.40567 20.3333H21.5943ZM1.40625 19.1608L7.48303 12.0044L1.40625 4.84028V19.1608Z" fill="#FFFDFD"/>
</svg>
